<?xml version="1.0" encoding="iso-8859-1"?>
<!-- Generator: Adobe Illustrator 16.0.0, SVG Export Plug-In . SVG Version: 6.00 Build 0)  -->
<!DOCTYPE svg PUBLIC "-//W3C//DTD SVG 1.1//EN" "http://www.w3.org/Graphics/SVG/1.1/DTD/svg11.dtd">
<svg version="1.1" id="Capa_1" xmlns="http://www.w3.org/2000/svg" xmlns:xlink="http://www.w3.org/1999/xlink" x="0px" y="0px"
	 width="179.55px" height="179.551px" viewBox="0 0 179.55 179.551" style="enable-background:new 0 0 179.55 179.551;"
	 xml:space="preserve">
<g>
	<path d="M169.615,49.223c-5.495,0-9.956,4.459-9.956,9.956c0,2.134,0.686,4.093,1.835,5.72l-40.258,31.269L93.919,34.468
		c3.428-1.582,5.822-5.021,5.822-9.039c0-5.497-4.461-9.956-9.956-9.956c-5.492,0-9.964,4.459-9.964,9.956
		c0,4.019,2.405,7.457,5.833,9.039L58.443,95.945L18.09,64.898c1.139-1.627,1.825-3.586,1.825-5.72c0-5.497-4.461-9.956-9.959-9.956
		C4.466,49.223,0,53.682,0,59.179c0,5.487,4.466,9.957,9.956,9.957c0.216,0,0.422-0.053,0.633-0.063l28.648,73.997
		c0.599,1.561,2.099,2.584,3.773,2.584h93.529c1.677,0,3.175-1.013,3.776-2.584l28.645-73.997c0.211,0.01,0.412,0.063,0.633,0.063
		c5.49,0,9.957-4.469,9.957-9.957C179.571,53.682,175.104,49.223,169.615,49.223z M89.796,23.573c1.02,0,1.858,0.831,1.858,1.856
		c0,1.026-0.833,1.856-1.858,1.856c-1.026,0-1.856-0.83-1.856-1.856C87.94,24.403,88.77,23.573,89.796,23.573z M89.796,45.16
		l24.848,56.133l-12.25,9.513l-8.695-22.211c3.554-1.52,6.054-5.063,6.054-9.155c0-5.503-4.462-9.956-9.956-9.956
		c-5.498,0-9.957,4.453-9.957,9.956c0,3.947,2.336,7.341,5.685,8.954l-8.445,21.885l-12.01-9.238L89.796,45.16z M112.873,137.553
		l-7.394-18.879l12.54-9.745l12.678,28.624H112.873z M83.531,125.456l-5.2,4.039l2.392-6.201L83.531,125.456z M48.898,137.553
		l12.796-28.898l12.334,9.492l-7.501,19.406H48.898z M89.796,81.285c-1.021,0-1.856-0.83-1.856-1.856
		c0-1.025,0.83-1.856,1.856-1.856c1.025,0,1.858,0.831,1.858,1.856C91.655,80.455,90.816,81.285,89.796,81.285z M95.723,115.984
		l-5.576,4.346l-6.371-4.904l5.819-15.082L95.723,115.984z M98.803,123.853l1.761,4.482l-3.786-2.911L98.803,123.853z M8.121,59.179
		c0-1.02,0.831-1.856,1.859-1.856c1.025,0,1.856,0.831,1.856,1.856c0,1.026-0.826,1.856-1.856,1.856
		C8.952,61.035,8.121,60.199,8.121,59.179z M55.086,103.571l-11.974,27.042L23.126,78.976L55.086,103.571z M81.156,137.553
		l9.007-6.992l9.094,6.992H81.156z M136.476,130.613l-11.859-26.811l31.81-24.714L136.476,130.613z M169.615,61.035
		c-1.023,0-1.856-0.83-1.856-1.856c0-1.025,0.823-1.856,1.856-1.856c1.023,0,1.856,0.831,1.856,1.856
		C171.471,60.205,170.638,61.035,169.615,61.035z M140.2,160.028c0,2.236-1.814,4.05-4.05,4.05H43.442
		c-2.236,0-4.05-1.813-4.05-4.05s1.814-4.05,4.05-4.05h92.708C138.385,155.979,140.2,157.792,140.2,160.028z"/>
</g>
<g>
</g>
<g>
</g>
<g>
</g>
<g>
</g>
<g>
</g>
<g>
</g>
<g>
</g>
<g>
</g>
<g>
</g>
<g>
</g>
<g>
</g>
<g>
</g>
<g>
</g>
<g>
</g>
<g>
</g>
</svg>
